<svg width="316" height="443" viewBox="0 0 316 443" fill="none" xmlns="http://www.w3.org/2000/svg">
<g id="a-house">
<path id="Vector" d="M134.887 430.499L3.83357 425.97L0.00202933 106.469C-0.0907407 98.7138 3.00105 91.1201 8.48543 85.6357L144.606 9.51506C155.262 -1.13973 172.033 -1.90974 183.619 7.72844L266.227 76.4467C272.966 82.0527 276.772 90.2953 276.669 99.061L273.83 339.342L309.734 389.208L309.81 389.313L315.894 442.037L134.887 430.499Z" fill="#422C37"/>
<path id="Vector_2" d="M146.828 83.9076V69.0922C146.828 65.1816 150.01 61.9999 153.921 61.9999H174.736C178.647 61.9999 181.828 65.1816 181.828 69.0922V83.9076C181.828 87.8183 178.647 90.9999 174.736 90.9999H153.921C150.01 90.9999 146.828 87.8183 146.828 83.9076Z" fill="#ADD8E6"/>
<path id="Vector_3" d="M102.828 198.908V144.092C102.828 140.182 106.01 137 109.921 137H140.736C144.647 137 147.828 140.182 147.828 144.092V198.908C147.828 202.818 144.647 206 140.736 206H109.921C106.01 206 102.828 202.818 102.828 198.908Z" fill="#ADD8E6"/>
<path id="Vector_4" d="M28.1679 262.589V207.773C28.1679 203.862 31.3495 200.681 35.2602 200.681H66.0761C69.9867 200.681 73.1679 203.862 73.1679 207.773V262.589C73.1679 266.499 69.9867 269.681 66.0761 269.681H35.2602C31.3495 269.681 28.1679 266.499 28.1679 262.589Z" fill="#ADD8E6"/>
<path id="Vector_5" d="M172.485 327.219C168.76 327.087 165.757 324.064 165.647 320.339L164.088 267.357C164.022 265.096 165.001 262.994 166.774 261.589C168.548 260.184 170.819 259.716 173.005 260.296L174.564 260.712C177.663 261.539 179.828 264.356 179.828 267.564V320.131C179.828 322.072 179.059 323.885 177.662 325.233C176.327 326.522 174.589 327.223 172.743 327.223C172.657 327.223 172.571 327.222 172.485 327.219Z" fill="#ADD8E6"/>
<path id="Vector_6" d="M107.828 319.908V264.934C107.828 261.053 110.868 257.938 114.748 257.843L142.756 257.16C146.638 257.106 149.905 260.153 150.019 264.045L151.632 319.702C151.688 321.635 150.977 323.463 149.629 324.85C148.282 326.236 146.476 327 144.543 327H114.921C111.01 327 107.828 323.818 107.828 319.908Z" fill="#ADD8E6"/>
<path id="Vector_7" d="M273.376 357.473L295.328 396.5L297.848 440.39L315.328 441.5L309.328 389.5L273.328 339.5C270.221 345.093 270.239 351.897 273.376 357.473Z" fill="#CCCCCC"/>
<path id="Vector_8" d="M297.146 427.828L225.898 428.802L225.911 429.802L297.16 428.828L297.146 427.828Z" fill="#3F3D56"/>
<path id="Vector_9" d="M292.824 419.003L225.27 419.53L225.277 420.53L292.832 420.003L292.824 419.003Z" fill="#3F3D56"/>
<path id="Vector_10" d="M289.318 409.984L224.699 411.246L224.718 412.246L289.338 410.984L289.318 409.984Z" fill="#3F3D56"/>
<path id="Vector_11" d="M287.312 401.015L225.257 403.075L225.29 404.075L287.345 402.015L287.312 401.015Z" fill="#3F3D56"/>
<path id="Vector_12" d="M284.312 393.029L224.69 395.125L224.725 396.125L284.347 394.029L284.312 393.029Z" fill="#3F3D56"/>
<path id="Vector_13" d="M280.328 386H222.257V387H280.328V386Z" fill="#3F3D56"/>
<path id="Vector_14" d="M277.322 378.983L220.886 379.645L220.898 380.645L277.334 379.983L277.322 378.983Z" fill="#3F3D56"/>
<path id="Vector_15" d="M274.311 371.989L219.626 373.805L219.659 374.805L274.345 372.989L274.311 371.989Z" fill="#3F3D56"/>
<path id="Vector_16" d="M272.32 365.026L218.319 365.975L218.337 366.975L272.338 366.026L272.32 365.026Z" fill="#3F3D56"/>
<path id="Vector_17" d="M268.312 358.1L216.606 359.715L216.637 360.715L268.343 359.1L268.312 358.1Z" fill="#3F3D56"/>
<path id="Vector_18" d="M266.323 352L215.073 352.501L215.083 353.501L266.333 353L266.323 352Z" fill="#3F3D56"/>
<path id="Vector_19" d="M211.328 331.408V263.593C211.328 259.682 214.51 256.5 218.421 256.5H251.236C255.147 256.5 258.328 259.682 258.328 263.593V331.408C258.328 335.318 255.147 338.5 251.236 338.5H218.421C214.51 338.5 211.328 335.318 211.328 331.408Z" fill="#ADD8E6"/>
<path id="Vector_20" d="M134.887 430.499L16.7965 426.799L16.3282 426.768V381.811C16.3282 376.126 80.9537 371.5 86.6393 371.5H144.017C149.703 371.5 154.328 376.126 154.328 381.811V430.5H153.828L134.887 430.499Z" fill="#CCCCCC"/>
<path id="Vector_21" d="M215.328 208.408V156.592C215.328 152.682 218.51 149.5 222.421 149.5H233.236C237.147 149.5 240.328 152.682 240.328 156.592V208.408C240.328 212.318 237.147 215.5 233.236 215.5H222.421C218.51 215.5 215.328 212.318 215.328 208.408Z" fill="#ADD8E6"/>
<path id="Vector_22" d="M226.328 435.5L223.328 391.5L214.328 349.5L211.828 338C206.691 334.507 199.773 338.393 200.083 344.597L200.328 349.5L209.328 391.5L212.328 435.5" fill="#CCCCCC"/>
</g>
</svg>
