<svg width="247" height="506" viewBox="0 0 247 506" fill="none" xmlns="http://www.w3.org/2000/svg">
<g id="buildings">
<path id="Vector" d="M203.017 22.349V62.8012H180.493V503.963H227.501V79.5935V62.8012V22.349H203.017Z" fill="#575A89"/>
<path id="Vector_2" d="M78.9684 294.068V224.612H50.2413V294.068H39.4688V504.726H89.4145V294.068H78.9684Z" fill="#575A89"/>
<path id="Vector_3" d="M83.8651 407.029H45.0182V505.489H83.8651V407.029Z" fill="#3F3D56"/>
<path id="Vector_4" d="M163.844 0.214203V23.8751H106.39V0.214203H89.4145V505.489H180.493V0.214203H163.844Z" fill="#3F3D56"/>
<path id="Vector_5" d="M24.4524 144.47V125.388H15.9648V144.47H0.621552V505.489H39.4688V144.47H24.4524Z" fill="#3F3D56"/>
<path id="Vector_6" d="M121.733 64.328H103.452V82.6461H121.733V64.328Z" fill="#FF6584"/>
<path id="Vector_7" d="M160.58 252.852H142.299V271.17H160.58V252.852Z" fill="#FF6584"/>
<path id="Vector_8" d="M121.733 384.895H103.452V403.213H121.733V384.895Z" fill="#FF6584"/>
<path id="Vector_9" d="M29.3489 226.901H11.068V245.219H29.3489V226.901Z" fill="#FF6584"/>
<path id="Vector_10" d="M73.7453 417.715H55.4644V436.033H73.7453V417.715Z" fill="#FF6584"/>
<path id="Vector_11" opacity="0.1" d="M80.2742 310.096H48.9355V340.626H80.2742V310.096Z" fill="black"/>
<path id="Vector_12" opacity="0.1" d="M217.381 97.9112H186.042V128.441H217.381V97.9112Z" fill="black"/>
<path id="Vector_13" opacity="0.1" d="M217.381 162.788H186.042V193.318H217.381V162.788Z" fill="black"/>
<path id="Vector_14" opacity="0.1" d="M217.381 227.665H186.042V258.195H217.381V227.665Z" fill="black"/>
<path id="Vector_15" opacity="0.1" d="M217.381 292.541H186.042V323.071H217.381V292.541Z" fill="black"/>
<path id="Vector_16" opacity="0.1" d="M217.381 357.418H186.042V387.948H217.381V357.418Z" fill="black"/>
<path id="Vector_17" opacity="0.1" d="M217.381 422.295H186.042V452.825H217.381V422.295Z" fill="black"/>
<path id="Vector_18" d="M238.273 236.06V152.865H215.422V236.06H207.261V505.489H246.108V236.06H238.273Z" fill="#3F3D56"/>
<path id="Vector_19" opacity="0.1" d="M214.443 236.06H207.261V505.489H214.443V236.06Z" fill="black"/>
<path id="Vector_20" opacity="0.1" d="M246.108 371.156H226.848V397.87H246.108V371.156Z" fill="black"/>
</g>
</svg>
