<svg width="242" height="699" viewBox="0 0 242 699" fill="none" xmlns="http://www.w3.org/2000/svg">
<g id="building">
<path id="Vector" d="M15.3052 683.591H15.2731C14.1575 683.588 13.0879 682.774 12.299 681.327C11.5102 679.879 11.0664 677.916 11.0652 675.869V222.564C11.0664 220.517 11.5102 218.555 12.299 217.107C13.0879 215.659 14.1575 214.845 15.2731 214.843H223.194C224.31 214.845 225.379 215.659 226.168 217.107C226.957 218.554 227.401 220.517 227.402 222.564V575.034C227.401 577.071 226.961 579.024 226.179 580.47C225.398 581.916 224.336 582.737 223.227 582.755L15.3052 683.591Z" fill="#D3D3D3"/>
<path id="Vector_2" d="M168.986 150.799H72.4513V48.1466C72.4527 45.979 72.9225 43.9009 73.7578 42.3681C74.593 40.8354 75.7255 39.9732 76.9068 39.9708H164.531C165.712 39.9732 166.844 40.8354 167.679 42.3681C168.515 43.9009 168.985 45.979 168.986 48.1466V150.799ZM73.4414 148.982H167.996V48.1466C167.995 46.4607 167.629 44.8443 166.98 43.6522C166.33 42.4601 165.449 41.7895 164.531 41.7876H76.9068C75.988 41.7895 75.1072 42.4601 74.4575 43.6522C73.8079 44.8443 73.4424 46.4607 73.4414 48.1466V148.982Z" fill="#3F3D56"/>
<path id="Vector_3" d="M99.9266 79.0331H141.511C142.561 79.0331 143.568 79.7988 144.311 81.1617C145.054 82.5246 145.471 84.3731 145.471 86.3005V195.312H95.9662V86.3005C95.9662 84.3731 96.3834 82.5246 97.1261 81.1617C97.8689 79.7988 98.8762 79.0331 99.9266 79.0331Z" fill="#A9A9A9"/>
<path id="Vector_4" d="M108.095 41.7876H87.7979V4.54213C87.7986 3.33791 88.0596 2.1834 88.5237 1.33188C88.9877 0.480364 89.6169 0.00137768 90.2731 0H105.62C106.276 0.00137768 106.905 0.480364 107.369 1.33188C107.833 2.1834 108.094 3.33791 108.095 4.54213V41.7876ZM88.788 39.9707H107.105V4.54213C107.104 3.81958 106.948 3.12686 106.669 2.61594C106.391 2.10502 106.013 1.81764 105.62 1.81685H90.2731C89.8793 1.81764 89.5018 2.10502 89.2234 2.61594C88.945 3.12686 88.7884 3.81958 88.788 4.54213V39.9707Z" fill="black"/>
<path id="Vector_5" d="M24.5601 158.066L24.9266 159.392C25.0889 159.965 25.1738 160.6 25.1741 161.246V197.128H42.5008V161.246C42.501 160.6 42.5859 159.965 42.7483 159.392L43.1148 158.066H24.5601ZM41.5107 161.246V195.312H26.1642V161.246C26.1644 160.786 26.1345 160.329 26.075 159.883H41.5999C41.5404 160.329 41.5104 160.786 41.5107 161.246ZM46.3423 158.066L46.7087 159.392C46.8711 159.965 46.956 160.6 46.9563 161.246V197.128H64.283V161.246C64.2832 160.6 64.3681 159.965 64.5305 159.392L64.897 158.066H46.3423ZM63.2929 161.246V195.312H47.9464V161.246C47.9466 160.786 47.9167 160.329 47.8572 159.883H63.3821C63.3226 160.329 63.2926 160.786 63.2929 161.246ZM68.1245 158.066L68.4909 159.392C68.6533 159.965 68.7382 160.6 68.7384 161.246V197.128H86.0652V161.246C86.0654 160.6 86.1503 159.965 86.3127 159.392L86.6792 158.066H68.1245ZM85.0751 161.246V195.312H69.7285V161.246C69.7288 160.786 69.6989 160.329 69.6394 159.883H85.1643C85.1048 160.329 85.0748 160.786 85.0751 161.246ZM89.9066 158.066L90.2731 159.392C90.4355 159.965 90.5204 160.6 90.5206 161.246V197.128H107.847V161.246C107.848 160.6 107.932 159.965 108.095 159.392L108.461 158.066H89.9066ZM106.857 161.246V195.312H91.5107V161.246C91.511 160.786 91.481 160.329 91.4215 159.883H106.946C106.887 160.329 106.857 160.786 106.857 161.246ZM111.689 158.066L112.055 159.392C112.218 159.965 112.303 160.6 112.303 161.246V197.128H129.63V161.246C129.63 160.6 129.715 159.965 129.877 159.392L130.244 158.066H111.689ZM128.639 161.246V195.312H113.293V161.246C113.293 160.786 113.263 160.329 113.204 159.883H128.729C128.669 160.329 128.639 160.786 128.639 161.246ZM133.471 158.066L133.837 159.392C134 159.965 134.085 160.6 134.085 161.246V197.128H151.412V161.246C151.412 160.6 151.497 159.965 151.659 159.392L152.026 158.066H133.471ZM150.422 161.246V195.312H135.075V161.246C135.075 160.786 135.045 160.329 134.986 159.883H150.511C150.451 160.329 150.421 160.786 150.422 161.246ZM155.253 158.066L155.62 159.392C155.782 159.965 155.867 160.6 155.867 161.246V197.128H173.194V161.246C173.194 160.6 173.279 159.965 173.441 159.392L173.808 158.066H155.253ZM172.204 161.246V195.312H156.857V161.246C156.858 160.786 156.828 160.329 156.768 159.883H172.293C172.233 160.329 172.204 160.786 172.204 161.246ZM177.035 158.066L177.402 159.392C177.564 159.965 177.649 160.6 177.649 161.246V197.128H194.976V161.246C194.976 160.6 195.061 159.965 195.224 159.392L195.59 158.066H177.035ZM193.986 161.246V195.312H178.639V161.246C178.64 160.786 178.61 160.329 178.55 159.883H194.075C194.016 160.329 193.986 160.786 193.986 161.246ZM198.818 158.066L199.184 159.392C199.346 159.965 199.431 160.6 199.432 161.246V197.128H216.758V161.246C216.758 160.6 216.843 159.965 217.006 159.392L217.372 158.066H198.818ZM215.768 161.246V195.312H200.422V161.246C200.422 160.786 200.392 160.329 200.332 159.883H215.857C215.798 160.329 215.768 160.786 215.768 161.246ZM198.818 158.066L199.184 159.392C199.346 159.965 199.431 160.6 199.432 161.246V197.128H216.758V161.246C216.758 160.6 216.843 159.965 217.006 159.392L217.372 158.066H198.818ZM215.768 161.246V195.312H200.422V161.246C200.422 160.786 200.392 160.329 200.332 159.883H215.857C215.798 160.329 215.768 160.786 215.768 161.246ZM177.035 158.066L177.402 159.392C177.564 159.965 177.649 160.6 177.649 161.246V197.128H194.976V161.246C194.976 160.6 195.061 159.965 195.224 159.392L195.59 158.066H177.035ZM193.986 161.246V195.312H178.639V161.246C178.64 160.786 178.61 160.329 178.55 159.883H194.075C194.016 160.329 193.986 160.786 193.986 161.246ZM155.253 158.066L155.62 159.392C155.782 159.965 155.867 160.6 155.867 161.246V197.128H173.194V161.246C173.194 160.6 173.279 159.965 173.441 159.392L173.808 158.066H155.253ZM172.204 161.246V195.312H156.857V161.246C156.858 160.786 156.828 160.329 156.768 159.883H172.293C172.233 160.329 172.204 160.786 172.204 161.246ZM133.471 158.066L133.837 159.392C134 159.965 134.085 160.6 134.085 161.246V197.128H151.412V161.246C151.412 160.6 151.497 159.965 151.659 159.392L152.026 158.066H133.471ZM150.422 161.246V195.312H135.075V161.246C135.075 160.786 135.045 160.329 134.986 159.883H150.511C150.451 160.329 150.421 160.786 150.422 161.246ZM111.689 158.066L112.055 159.392C112.218 159.965 112.303 160.6 112.303 161.246V197.128H129.63V161.246C129.63 160.6 129.715 159.965 129.877 159.392L130.244 158.066H111.689ZM128.639 161.246V195.312H113.293V161.246C113.293 160.786 113.263 160.329 113.204 159.883H128.729C128.669 160.329 128.639 160.786 128.639 161.246ZM89.9066 158.066L90.2731 159.392C90.4355 159.965 90.5204 160.6 90.5206 161.246V197.128H107.847V161.246C107.848 160.6 107.932 159.965 108.095 159.392L108.461 158.066H89.9066ZM106.857 161.246V195.312H91.5107V161.246C91.511 160.786 91.481 160.329 91.4215 159.883H106.946C106.887 160.329 106.857 160.786 106.857 161.246ZM68.1245 158.066L68.4909 159.392C68.6533 159.965 68.7382 160.6 68.7384 161.246V197.128H86.0652V161.246C86.0654 160.6 86.1503 159.965 86.3127 159.392L86.6792 158.066H68.1245ZM85.0751 161.246V195.312H69.7285V161.246C69.7288 160.786 69.6989 160.329 69.6394 159.883H85.1643C85.1048 160.329 85.0748 160.786 85.0751 161.246ZM46.3423 158.066L46.7087 159.392C46.8711 159.965 46.956 160.6 46.9563 161.246V197.128H64.283V161.246C64.2832 160.6 64.3681 159.965 64.5305 159.392L64.897 158.066H46.3423ZM63.2929 161.246V195.312H47.9464V161.246C47.9466 160.786 47.9167 160.329 47.8572 159.883H63.3821C63.3226 160.329 63.2926 160.786 63.2929 161.246ZM24.5601 158.066L24.9266 159.392C25.0889 159.965 25.1738 160.6 25.1741 161.246V197.128H42.5008V161.246C42.501 160.6 42.5859 159.965 42.7483 159.392L43.1148 158.066H24.5601ZM41.5107 161.246V195.312H26.1642V161.246C26.1644 160.786 26.1345 160.329 26.075 159.883H41.5999C41.5404 160.329 41.5104 160.786 41.5107 161.246ZM198.818 158.066L199.184 159.392C199.346 159.965 199.431 160.6 199.432 161.246V197.128H216.758V161.246C216.758 160.6 216.843 159.965 217.006 159.392L217.372 158.066H198.818ZM215.768 161.246V195.312H200.422V161.246C200.422 160.786 200.392 160.329 200.332 159.883H215.857C215.798 160.329 215.768 160.786 215.768 161.246ZM177.035 158.066L177.402 159.392C177.564 159.965 177.649 160.6 177.649 161.246V197.128H194.976V161.246C194.976 160.6 195.061 159.965 195.224 159.392L195.59 158.066H177.035ZM193.986 161.246V195.312H178.639V161.246C178.64 160.786 178.61 160.329 178.55 159.883H194.075C194.016 160.329 193.986 160.786 193.986 161.246ZM155.253 158.066L155.62 159.392C155.782 159.965 155.867 160.6 155.867 161.246V197.128H173.194V161.246C173.194 160.6 173.279 159.965 173.441 159.392L173.808 158.066H155.253ZM172.204 161.246V195.312H156.857V161.246C156.858 160.786 156.828 160.329 156.768 159.883H172.293C172.233 160.329 172.204 160.786 172.204 161.246ZM133.471 158.066L133.837 159.392C134 159.965 134.085 160.6 134.085 161.246V197.128H151.412V161.246C151.412 160.6 151.497 159.965 151.659 159.392L152.026 158.066H133.471ZM150.422 161.246V195.312H135.075V161.246C135.075 160.786 135.045 160.329 134.986 159.883H150.511C150.451 160.329 150.421 160.786 150.422 161.246ZM111.689 158.066L112.055 159.392C112.218 159.965 112.303 160.6 112.303 161.246V197.128H129.63V161.246C129.63 160.6 129.715 159.965 129.877 159.392L130.244 158.066H111.689ZM128.639 161.246V195.312H113.293V161.246C113.293 160.786 113.263 160.329 113.204 159.883H128.729C128.669 160.329 128.639 160.786 128.639 161.246ZM89.9066 158.066L90.2731 159.392C90.4355 159.965 90.5204 160.6 90.5206 161.246V197.128H107.847V161.246C107.848 160.6 107.932 159.965 108.095 159.392L108.461 158.066H89.9066ZM106.857 161.246V195.312H91.5107V161.246C91.511 160.786 91.481 160.329 91.4215 159.883H106.946C106.887 160.329 106.857 160.786 106.857 161.246ZM68.1245 158.066L68.4909 159.392C68.6533 159.965 68.7382 160.6 68.7384 161.246V197.128H86.0652V161.246C86.0654 160.6 86.1503 159.965 86.3127 159.392L86.6792 158.066H68.1245ZM85.0751 161.246V195.312H69.7285V161.246C69.7288 160.786 69.6989 160.329 69.6394 159.883H85.1643C85.1048 160.329 85.0748 160.786 85.0751 161.246ZM46.3423 158.066L46.7087 159.392C46.8711 159.965 46.956 160.6 46.9563 161.246V197.128H64.283V161.246C64.2832 160.6 64.3681 159.965 64.5305 159.392L64.897 158.066H46.3423ZM63.2929 161.246V195.312H47.9464V161.246C47.9466 160.786 47.9167 160.329 47.8572 159.883H63.3821C63.3226 160.329 63.2926 160.786 63.2929 161.246ZM24.5601 158.066L24.9266 159.392C25.0889 159.965 25.1738 160.6 25.1741 161.246V197.128H42.5008V161.246C42.501 160.6 42.5859 159.965 42.7483 159.392L43.1148 158.066H24.5601ZM41.5107 161.246V195.312H26.1642V161.246C26.1644 160.786 26.1345 160.329 26.075 159.883H41.5999C41.5404 160.329 41.5104 160.786 41.5107 161.246ZM198.818 158.066L199.184 159.392C199.346 159.965 199.431 160.6 199.432 161.246V197.128H216.758V161.246C216.758 160.6 216.843 159.965 217.006 159.392L217.372 158.066H198.818ZM215.768 161.246V195.312H200.422V161.246C200.422 160.786 200.392 160.329 200.332 159.883H215.857C215.798 160.329 215.768 160.786 215.768 161.246ZM177.035 158.066L177.402 159.392C177.564 159.965 177.649 160.6 177.649 161.246V197.128H194.976V161.246C194.976 160.6 195.061 159.965 195.224 159.392L195.59 158.066H177.035ZM193.986 161.246V195.312H178.639V161.246C178.64 160.786 178.61 160.329 178.55 159.883H194.075C194.016 160.329 193.986 160.786 193.986 161.246ZM155.253 158.066L155.62 159.392C155.782 159.965 155.867 160.6 155.867 161.246V197.128H173.194V161.246C173.194 160.6 173.279 159.965 173.441 159.392L173.808 158.066H155.253ZM172.204 161.246V195.312H156.857V161.246C156.858 160.786 156.828 160.329 156.768 159.883H172.293C172.233 160.329 172.204 160.786 172.204 161.246ZM133.471 158.066L133.837 159.392C134 159.965 134.085 160.6 134.085 161.246V197.128H151.412V161.246C151.412 160.6 151.497 159.965 151.659 159.392L152.026 158.066H133.471ZM150.422 161.246V195.312H135.075V161.246C135.075 160.786 135.045 160.329 134.986 159.883H150.511C150.451 160.329 150.421 160.786 150.422 161.246ZM111.689 158.066L112.055 159.392C112.218 159.965 112.303 160.6 112.303 161.246V197.128H129.63V161.246C129.63 160.6 129.715 159.965 129.877 159.392L130.244 158.066H111.689ZM128.639 161.246V195.312H113.293V161.246C113.293 160.786 113.263 160.329 113.204 159.883H128.729C128.669 160.329 128.639 160.786 128.639 161.246ZM89.9066 158.066L90.2731 159.392C90.4355 159.965 90.5204 160.6 90.5206 161.246V197.128H107.847V161.246C107.848 160.6 107.932 159.965 108.095 159.392L108.461 158.066H89.9066ZM106.857 161.246V195.312H91.5107V161.246C91.511 160.786 91.481 160.329 91.4215 159.883H106.946C106.887 160.329 106.857 160.786 106.857 161.246ZM68.1245 158.066L68.4909 159.392C68.6533 159.965 68.7382 160.6 68.7384 161.246V197.128H86.0652V161.246C86.0654 160.6 86.1503 159.965 86.3127 159.392L86.6792 158.066H68.1245ZM85.0751 161.246V195.312H69.7285V161.246C69.7288 160.786 69.6989 160.329 69.6394 159.883H85.1643C85.1048 160.329 85.0748 160.786 85.0751 161.246ZM46.3423 158.066L46.7087 159.392C46.8711 159.965 46.956 160.6 46.9563 161.246V197.128H64.283V161.246C64.2832 160.6 64.3681 159.965 64.5305 159.392L64.897 158.066H46.3423ZM63.2929 161.246V195.312H47.9464V161.246C47.9466 160.786 47.9167 160.329 47.8572 159.883H63.3821C63.3226 160.329 63.2926 160.786 63.2929 161.246ZM24.5601 158.066L24.9266 159.392C25.0889 159.965 25.1738 160.6 25.1741 161.246V197.128H42.5008V161.246C42.501 160.6 42.5859 159.965 42.7483 159.392L43.1148 158.066H24.5601ZM41.5107 161.246V195.312H26.1642V161.246C26.1644 160.786 26.1345 160.329 26.075 159.883H41.5999C41.5404 160.329 41.5104 160.786 41.5107 161.246ZM198.818 158.066L199.184 159.392C199.346 159.965 199.431 160.6 199.432 161.246V197.128H216.758V161.246C216.758 160.6 216.843 159.965 217.006 159.392L217.372 158.066H198.818ZM215.768 161.246V195.312H200.422V161.246C200.422 160.786 200.392 160.329 200.332 159.883H215.857C215.798 160.329 215.768 160.786 215.768 161.246ZM177.035 158.066L177.402 159.392C177.564 159.965 177.649 160.6 177.649 161.246V197.128H194.976V161.246C194.976 160.6 195.061 159.965 195.224 159.392L195.59 158.066H177.035ZM193.986 161.246V195.312H178.639V161.246C178.64 160.786 178.61 160.329 178.55 159.883H194.075C194.016 160.329 193.986 160.786 193.986 161.246ZM155.253 158.066L155.62 159.392C155.782 159.965 155.867 160.6 155.867 161.246V197.128H173.194V161.246C173.194 160.6 173.279 159.965 173.441 159.392L173.808 158.066H155.253ZM172.204 161.246V195.312H156.857V161.246C156.858 160.786 156.828 160.329 156.768 159.883H172.293C172.233 160.329 172.204 160.786 172.204 161.246ZM133.471 158.066L133.837 159.392C134 159.965 134.085 160.6 134.085 161.246V197.128H151.412V161.246C151.412 160.6 151.497 159.965 151.659 159.392L152.026 158.066H133.471ZM150.422 161.246V195.312H135.075V161.246C135.075 160.786 135.045 160.329 134.986 159.883H150.511C150.451 160.329 150.421 160.786 150.422 161.246ZM111.689 158.066L112.055 159.392C112.218 159.965 112.303 160.6 112.303 161.246V197.128H129.63V161.246C129.63 160.6 129.715 159.965 129.877 159.392L130.244 158.066H111.689ZM128.639 161.246V195.312H113.293V161.246C113.293 160.786 113.263 160.329 113.204 159.883H128.729C128.669 160.329 128.639 160.786 128.639 161.246ZM89.9066 158.066L90.2731 159.392C90.4355 159.965 90.5204 160.6 90.5206 161.246V197.128H107.847V161.246C107.848 160.6 107.932 159.965 108.095 159.392L108.461 158.066H89.9066ZM106.857 161.246V195.312H91.5107V161.246C91.511 160.786 91.481 160.329 91.4215 159.883H106.946C106.887 160.329 106.857 160.786 106.857 161.246ZM68.1245 158.066L68.4909 159.392C68.6533 159.965 68.7382 160.6 68.7384 161.246V197.128H86.0652V161.246C86.0654 160.6 86.1503 159.965 86.3127 159.392L86.6792 158.066H68.1245ZM85.0751 161.246V195.312H69.7285V161.246C69.7288 160.786 69.6989 160.329 69.6394 159.883H85.1643C85.1048 160.329 85.0748 160.786 85.0751 161.246ZM46.3423 158.066L46.7087 159.392C46.8711 159.965 46.956 160.6 46.9563 161.246V197.128H64.283V161.246C64.2832 160.6 64.3681 159.965 64.5305 159.392L64.897 158.066H46.3423ZM63.2929 161.246V195.312H47.9464V161.246C47.9466 160.786 47.9167 160.329 47.8572 159.883H63.3821C63.3226 160.329 63.2926 160.786 63.2929 161.246ZM24.5601 158.066L24.9266 159.392C25.0889 159.965 25.1738 160.6 25.1741 161.246V197.128H42.5008V161.246C42.501 160.6 42.5859 159.965 42.7483 159.392L43.1148 158.066H24.5601ZM41.5107 161.246V195.312H26.1642V161.246C26.1644 160.786 26.1345 160.329 26.075 159.883H41.5999C41.5404 160.329 41.5104 160.786 41.5107 161.246ZM198.818 158.066L199.184 159.392C199.346 159.965 199.431 160.6 199.432 161.246V197.128H216.758V161.246C216.758 160.6 216.843 159.965 217.006 159.392L217.372 158.066H198.818ZM215.768 161.246V195.312H200.422V161.246C200.422 160.786 200.392 160.329 200.332 159.883H215.857C215.798 160.329 215.768 160.786 215.768 161.246ZM177.402 159.392C177.564 159.965 177.649 160.6 177.649 161.246V197.128H194.976V161.246C194.976 160.6 195.061 159.965 195.224 159.392L195.59 158.066H177.035L177.402 159.392ZM194.075 159.883C194.016 160.329 193.986 160.786 193.986 161.246V195.312H178.639V161.246C178.64 160.786 178.61 160.329 178.55 159.883H194.075ZM155.62 159.392C155.782 159.965 155.867 160.6 155.867 161.246V197.128H173.194V161.246C173.194 160.6 173.279 159.965 173.441 159.392L173.808 158.066H155.253L155.62 159.392ZM172.293 159.883C172.233 160.329 172.204 160.786 172.204 161.246V195.312H156.857V161.246C156.858 160.786 156.828 160.329 156.768 159.883H172.293ZM133.837 159.392C134 159.965 134.085 160.6 134.085 161.246V197.128H151.412V161.246C151.412 160.6 151.497 159.965 151.659 159.392L152.026 158.066H133.471L133.837 159.392ZM150.511 159.883C150.451 160.329 150.421 160.786 150.422 161.246V195.312H135.075V161.246C135.075 160.786 135.045 160.329 134.986 159.883H150.511ZM112.055 159.392C112.218 159.965 112.303 160.6 112.303 161.246V197.128H129.63V161.246C129.63 160.6 129.715 159.965 129.877 159.392L130.244 158.066H111.689L112.055 159.392ZM128.729 159.883C128.669 160.329 128.639 160.786 128.639 161.246V195.312H113.293V161.246C113.293 160.786 113.263 160.329 113.204 159.883H128.729ZM90.2731 159.392C90.4355 159.965 90.5204 160.6 90.5206 161.246V197.128H107.847V161.246C107.848 160.6 107.932 159.965 108.095 159.392L108.461 158.066H89.9066L90.2731 159.392ZM106.946 159.883C106.887 160.329 106.857 160.786 106.857 161.246V195.312H91.5107V161.246C91.511 160.786 91.481 160.329 91.4215 159.883H106.946ZM68.4909 159.392C68.6533 159.965 68.7382 160.6 68.7384 161.246V197.128H86.0652V161.246C86.0654 160.6 86.1503 159.965 86.3127 159.392L86.6792 158.066H68.1245L68.4909 159.392ZM85.1643 159.883C85.1048 160.329 85.0748 160.786 85.0751 161.246V195.312H69.7285V161.246C69.7288 160.786 69.6989 160.329 69.6394 159.883H85.1643ZM46.7087 159.392C46.8711 159.965 46.956 160.6 46.9563 161.246V197.128H64.283V161.246C64.2832 160.6 64.3681 159.965 64.5305 159.392L64.897 158.066H46.3423L46.7087 159.392ZM63.3821 159.883C63.3226 160.329 63.2926 160.786 63.2929 161.246V195.312H47.9464V161.246C47.9466 160.786 47.9167 160.329 47.8572 159.883H63.3821ZM24.9266 159.392C25.0889 159.965 25.1738 160.6 25.1741 161.246V197.128H42.5008V161.246C42.501 160.6 42.5859 159.965 42.7483 159.392L43.1148 158.066H24.5601L24.9266 159.392ZM41.5999 159.883C41.5404 160.329 41.5104 160.786 41.5107 161.246V195.312H26.1642V161.246C26.1644 160.786 26.1345 160.329 26.075 159.883H41.5999ZM199.184 159.392C199.346 159.965 199.431 160.6 199.432 161.246V197.128H216.758V161.246C216.758 160.6 216.843 159.965 217.006 159.392L217.372 158.066H198.818L199.184 159.392ZM215.857 159.883C215.798 160.329 215.768 160.786 215.768 161.246V195.312H200.422V161.246C200.422 160.786 200.392 160.329 200.332 159.883H215.857ZM177.402 159.392C177.564 159.965 177.649 160.6 177.649 161.246V197.128H194.976V161.246C194.976 160.6 195.061 159.965 195.224 159.392L195.59 158.066H177.035L177.402 159.392ZM194.075 159.883C194.016 160.329 193.986 160.786 193.986 161.246V195.312H178.639V161.246C178.64 160.786 178.61 160.329 178.55 159.883H194.075ZM155.62 159.392C155.782 159.965 155.867 160.6 155.867 161.246V197.128H173.194V161.246C173.194 160.6 173.279 159.965 173.441 159.392L173.808 158.066H155.253L155.62 159.392ZM172.293 159.883C172.233 160.329 172.204 160.786 172.204 161.246V195.312H156.857V161.246C156.858 160.786 156.828 160.329 156.768 159.883H172.293ZM133.837 159.392C134 159.965 134.085 160.6 134.085 161.246V197.128H151.412V161.246C151.412 160.6 151.497 159.965 151.659 159.392L152.026 158.066H133.471L133.837 159.392ZM150.511 159.883C150.451 160.329 150.421 160.786 150.422 161.246V195.312H135.075V161.246C135.075 160.786 135.045 160.329 134.986 159.883H150.511ZM112.055 159.392C112.218 159.965 112.303 160.6 112.303 161.246V197.128H129.63V161.246C129.63 160.6 129.715 159.965 129.877 159.392L130.244 158.066H111.689L112.055 159.392ZM128.729 159.883C128.669 160.329 128.639 160.786 128.639 161.246V195.312H113.293V161.246C113.293 160.786 113.263 160.329 113.204 159.883H128.729ZM90.2731 159.392C90.4355 159.965 90.5204 160.6 90.5206 161.246V197.128H107.847V161.246C107.848 160.6 107.932 159.965 108.095 159.392L108.461 158.066H89.9066L90.2731 159.392ZM106.946 159.883C106.887 160.329 106.857 160.786 106.857 161.246V195.312H91.5107V161.246C91.511 160.786 91.481 160.329 91.4215 159.883H106.946ZM68.4909 159.392C68.6533 159.965 68.7382 160.6 68.7384 161.246V197.128H86.0652V161.246C86.0654 160.6 86.1503 159.965 86.3127 159.392L86.6792 158.066H68.1245L68.4909 159.392ZM85.1643 159.883C85.1048 160.329 85.0748 160.786 85.0751 161.246V195.312H69.7285V161.246C69.7288 160.786 69.6989 160.329 69.6394 159.883H85.1643ZM46.7087 159.392C46.8711 159.965 46.956 160.6 46.9563 161.246V197.128H64.283V161.246C64.2832 160.6 64.3681 159.965 64.5305 159.392L64.897 158.066H46.3423L46.7087 159.392ZM63.3821 159.883C63.3226 160.329 63.2926 160.786 63.2929 161.246V195.312H47.9464V161.246C47.9466 160.786 47.9167 160.329 47.8572 159.883H63.3821ZM24.9266 159.392C25.0889 159.965 25.1738 160.6 25.1741 161.246V197.128H42.5008V161.246C42.501 160.6 42.5859 159.965 42.7483 159.392L43.1148 158.066H24.5601L24.9266 159.392ZM41.5999 159.883C41.5404 160.329 41.5104 160.786 41.5107 161.246V195.312H26.1642V161.246C26.1644 160.786 26.1345 160.329 26.075 159.883H41.5999ZM236.56 202.579H230.659C230.334 200.489 229.647 198.65 228.702 197.339C227.757 196.028 226.606 195.317 225.422 195.312H222.204V161.246C222.205 160.514 222.129 159.789 221.981 159.111C222.542 158.505 222.978 157.577 223.223 156.47C223.468 155.363 223.508 154.139 223.336 152.987C223.165 151.835 222.791 150.818 222.273 150.095C221.755 149.371 221.122 148.98 220.471 148.982H21.4612C20.8102 148.98 20.177 149.371 19.6592 150.095C19.1413 150.818 18.7677 151.835 18.596 152.987C18.4242 154.139 18.4639 155.363 18.7089 156.47C18.9538 157.577 19.3905 158.505 19.9514 159.111C19.8029 159.789 19.7272 160.514 19.7285 161.246V195.312H16.5107C15.3263 195.317 14.1749 196.028 13.2301 197.339C12.2854 198.65 11.5985 200.489 11.2731 202.579H4.87705C3.69593 202.582 2.56371 203.445 1.72854 204.977C0.893365 206.51 0.423377 208.587 0.4216 210.755V690.404C0.424161 692.571 0.894396 694.648 1.7294 696.18C2.5644 697.712 3.69618 698.575 4.87705 698.58H236.56C237.741 698.577 238.874 697.714 239.709 696.182C240.544 694.649 241.014 692.571 241.016 690.404V210.755C241.014 208.587 240.544 206.51 239.709 204.977C238.874 203.445 237.741 202.582 236.56 202.579ZM240.026 690.404C240.025 691.702 239.808 692.969 239.403 694.034C238.999 695.099 238.427 695.912 237.763 696.363C237.379 696.632 236.971 696.767 236.56 696.763H4.87705C4.46602 696.767 4.05813 696.632 3.674 696.363C3.01068 695.912 2.43844 695.099 2.03406 694.034C1.62969 692.969 1.41252 691.702 1.4117 690.404V210.755C1.41272 209.069 1.77816 207.453 2.42781 206.26C3.07747 205.068 3.95829 204.398 4.87705 204.396H12.0652L12.1445 203.669C12.3526 201.825 12.9002 200.168 13.6952 198.977C14.4903 197.786 15.4844 197.134 16.5107 197.128H20.7186V161.246C20.7188 160.506 20.8283 159.781 21.0355 159.147L21.3423 158.211L20.7829 157.83C20.3458 157.539 19.9785 156.975 19.7459 156.236C19.5133 155.497 19.4302 154.631 19.5112 153.791C19.5923 152.951 19.8323 152.19 20.189 151.643C20.5457 151.095 20.9962 150.796 21.4612 150.799H220.471C220.936 150.796 221.387 151.095 221.743 151.643C222.1 152.19 222.34 152.951 222.421 153.791C222.502 154.631 222.419 155.497 222.186 156.236C221.954 156.975 221.587 157.539 221.149 157.83L220.59 158.211L220.897 159.147C221.104 159.781 221.214 160.506 221.214 161.246V197.128H225.422C226.448 197.133 227.442 197.786 228.237 198.977C229.032 200.168 229.58 201.825 229.788 203.669L229.867 204.396H236.56C237.479 204.398 238.36 205.068 239.009 206.26C239.659 207.453 240.025 209.069 240.026 210.755L240.026 690.404ZM24.5601 158.066L24.9266 159.392C25.0889 159.965 25.1738 160.6 25.1741 161.246V197.128H42.5008V161.246C42.501 160.6 42.5859 159.965 42.7483 159.392L43.1148 158.066H24.5601ZM41.5107 161.246V195.312H26.1642V161.246C26.1644 160.786 26.1345 160.329 26.075 159.883H41.5999C41.5404 160.329 41.5104 160.786 41.5107 161.246ZM46.3423 158.066L46.7087 159.392C46.8711 159.965 46.956 160.6 46.9563 161.246V197.128H64.283V161.246C64.2832 160.6 64.3681 159.965 64.5305 159.392L64.897 158.066H46.3423ZM63.2929 161.246V195.312H47.9464V161.246C47.9466 160.786 47.9167 160.329 47.8572 159.883H63.3821C63.3226 160.329 63.2926 160.786 63.2929 161.246ZM68.1245 158.066L68.4909 159.392C68.6533 159.965 68.7382 160.6 68.7384 161.246V197.128H86.0652V161.246C86.0654 160.6 86.1503 159.965 86.3127 159.392L86.6792 158.066H68.1245ZM85.0751 161.246V195.312H69.7285V161.246C69.7288 160.786 69.6989 160.329 69.6394 159.883H85.1643C85.1048 160.329 85.0748 160.786 85.0751 161.246ZM89.9066 158.066L90.2731 159.392C90.4355 159.965 90.5204 160.6 90.5206 161.246V197.128H107.847V161.246C107.848 160.6 107.932 159.965 108.095 159.392L108.461 158.066H89.9066ZM106.857 161.246V195.312H91.5107V161.246C91.511 160.786 91.481 160.329 91.4215 159.883H106.946C106.887 160.329 106.857 160.786 106.857 161.246ZM111.689 158.066L112.055 159.392C112.218 159.965 112.303 160.6 112.303 161.246V197.128H129.63V161.246C129.63 160.6 129.715 159.965 129.877 159.392L130.244 158.066H111.689ZM128.639 161.246V195.312H113.293V161.246C113.293 160.786 113.263 160.329 113.204 159.883H128.729C128.669 160.329 128.639 160.786 128.639 161.246ZM133.471 158.066L133.837 159.392C134 159.965 134.085 160.6 134.085 161.246V197.128H151.412V161.246C151.412 160.6 151.497 159.965 151.659 159.392L152.026 158.066H133.471ZM150.422 161.246V195.312H135.075V161.246C135.075 160.786 135.045 160.329 134.986 159.883H150.511C150.451 160.329 150.421 160.786 150.422 161.246ZM155.253 158.066L155.62 159.392C155.782 159.965 155.867 160.6 155.867 161.246V197.128H173.194V161.246C173.194 160.6 173.279 159.965 173.441 159.392L173.808 158.066H155.253ZM172.204 161.246V195.312H156.857V161.246C156.858 160.786 156.828 160.329 156.768 159.883H172.293C172.233 160.329 172.204 160.786 172.204 161.246ZM177.035 158.066L177.402 159.392C177.564 159.965 177.649 160.6 177.649 161.246V197.128H194.976V161.246C194.976 160.6 195.061 159.965 195.224 159.392L195.59 158.066H177.035ZM193.986 161.246V195.312H178.639V161.246C178.64 160.786 178.61 160.329 178.55 159.883H194.075C194.016 160.329 193.986 160.786 193.986 161.246ZM198.818 158.066L199.184 159.392C199.346 159.965 199.431 160.6 199.432 161.246V197.128H216.758V161.246C216.758 160.6 216.843 159.965 217.006 159.392L217.372 158.066H198.818ZM215.768 161.246V195.312H200.422V161.246C200.422 160.786 200.392 160.329 200.332 159.883H215.857C215.798 160.329 215.768 160.786 215.768 161.246ZM24.5601 158.066L24.9266 159.392C25.0889 159.965 25.1738 160.6 25.1741 161.246V197.128H42.5008V161.246C42.501 160.6 42.5859 159.965 42.7483 159.392L43.1148 158.066H24.5601ZM41.5107 161.246V195.312H26.1642V161.246C26.1644 160.786 26.1345 160.329 26.075 159.883H41.5999C41.5404 160.329 41.5104 160.786 41.5107 161.246ZM46.3423 158.066L46.7087 159.392C46.8711 159.965 46.956 160.6 46.9563 161.246V197.128H64.283V161.246C64.2832 160.6 64.3681 159.965 64.5305 159.392L64.897 158.066H46.3423ZM63.2929 161.246V195.312H47.9464V161.246C47.9466 160.786 47.9167 160.329 47.8572 159.883H63.3821C63.3226 160.329 63.2926 160.786 63.2929 161.246ZM68.1245 158.066L68.4909 159.392C68.6533 159.965 68.7382 160.6 68.7384 161.246V197.128H86.0652V161.246C86.0654 160.6 86.1503 159.965 86.3127 159.392L86.6792 158.066H68.1245ZM85.0751 161.246V195.312H69.7285V161.246C69.7288 160.786 69.6989 160.329 69.6394 159.883H85.1643C85.1048 160.329 85.0748 160.786 85.0751 161.246ZM89.9066 158.066L90.2731 159.392C90.4355 159.965 90.5204 160.6 90.5206 161.246V197.128H107.847V161.246C107.848 160.6 107.932 159.965 108.095 159.392L108.461 158.066H89.9066ZM106.857 161.246V195.312H91.5107V161.246C91.511 160.786 91.481 160.329 91.4215 159.883H106.946C106.887 160.329 106.857 160.786 106.857 161.246ZM111.689 158.066L112.055 159.392C112.218 159.965 112.303 160.6 112.303 161.246V197.128H129.63V161.246C129.63 160.6 129.715 159.965 129.877 159.392L130.244 158.066H111.689ZM128.639 161.246V195.312H113.293V161.246C113.293 160.786 113.263 160.329 113.204 159.883H128.729C128.669 160.329 128.639 160.786 128.639 161.246ZM133.471 158.066L133.837 159.392C134 159.965 134.085 160.6 134.085 161.246V197.128H151.412V161.246C151.412 160.6 151.497 159.965 151.659 159.392L152.026 158.066H133.471ZM150.422 161.246V195.312H135.075V161.246C135.075 160.786 135.045 160.329 134.986 159.883H150.511C150.451 160.329 150.421 160.786 150.422 161.246ZM155.253 158.066L155.62 159.392C155.782 159.965 155.867 160.6 155.867 161.246V197.128H173.194V161.246C173.194 160.6 173.279 159.965 173.441 159.392L173.808 158.066H155.253ZM172.204 161.246V195.312H156.857V161.246C156.858 160.786 156.828 160.329 156.768 159.883H172.293C172.233 160.329 172.204 160.786 172.204 161.246ZM177.035 158.066L177.402 159.392C177.564 159.965 177.649 160.6 177.649 161.246V197.128H194.976V161.246C194.976 160.6 195.061 159.965 195.224 159.392L195.59 158.066H177.035ZM193.986 161.246V195.312H178.639V161.246C178.64 160.786 178.61 160.329 178.55 159.883H194.075C194.016 160.329 193.986 160.786 193.986 161.246ZM198.818 158.066L199.184 159.392C199.346 159.965 199.431 160.6 199.432 161.246V197.128H216.758V161.246C216.758 160.6 216.843 159.965 217.006 159.392L217.372 158.066H198.818ZM215.768 161.246V195.312H200.422V161.246C200.422 160.786 200.392 160.329 200.332 159.883H215.857C215.798 160.329 215.768 160.786 215.768 161.246ZM24.5601 158.066L24.9266 159.392C25.0889 159.965 25.1738 160.6 25.1741 161.246V197.128H42.5008V161.246C42.501 160.6 42.5859 159.965 42.7483 159.392L43.1148 158.066H24.5601ZM41.5107 161.246V195.312H26.1642V161.246C26.1644 160.786 26.1345 160.329 26.075 159.883H41.5999C41.5404 160.329 41.5104 160.786 41.5107 161.246ZM46.3423 158.066L46.7087 159.392C46.8711 159.965 46.956 160.6 46.9563 161.246V197.128H64.283V161.246C64.2832 160.6 64.3681 159.965 64.5305 159.392L64.897 158.066H46.3423ZM63.2929 161.246V195.312H47.9464V161.246C47.9466 160.786 47.9167 160.329 47.8572 159.883H63.3821C63.3226 160.329 63.2926 160.786 63.2929 161.246ZM68.1245 158.066L68.4909 159.392C68.6533 159.965 68.7382 160.6 68.7384 161.246V197.128H86.0652V161.246C86.0654 160.6 86.1503 159.965 86.3127 159.392L86.6792 158.066H68.1245ZM85.0751 161.246V195.312H69.7285V161.246C69.7288 160.786 69.6989 160.329 69.6394 159.883H85.1643C85.1048 160.329 85.0748 160.786 85.0751 161.246ZM89.9066 158.066L90.2731 159.392C90.4355 159.965 90.5204 160.6 90.5206 161.246V197.128H107.847V161.246C107.848 160.6 107.932 159.965 108.095 159.392L108.461 158.066H89.9066ZM106.857 161.246V195.312H91.5107V161.246C91.511 160.786 91.481 160.329 91.4215 159.883H106.946C106.887 160.329 106.857 160.786 106.857 161.246ZM111.689 158.066L112.055 159.392C112.218 159.965 112.303 160.6 112.303 161.246V197.128H129.63V161.246C129.63 160.6 129.715 159.965 129.877 159.392L130.244 158.066H111.689ZM128.639 161.246V195.312H113.293V161.246C113.293 160.786 113.263 160.329 113.204 159.883H128.729C128.669 160.329 128.639 160.786 128.639 161.246ZM133.471 158.066L133.837 159.392C134 159.965 134.085 160.6 134.085 161.246V197.128H151.412V161.246C151.412 160.6 151.497 159.965 151.659 159.392L152.026 158.066H133.471ZM150.422 161.246V195.312H135.075V161.246C135.075 160.786 135.045 160.329 134.986 159.883H150.511C150.451 160.329 150.421 160.786 150.422 161.246ZM155.253 158.066L155.62 159.392C155.782 159.965 155.867 160.6 155.867 161.246V197.128H173.194V161.246C173.194 160.6 173.279 159.965 173.441 159.392L173.808 158.066H155.253ZM172.204 161.246V195.312H156.857V161.246C156.858 160.786 156.828 160.329 156.768 159.883H172.293C172.233 160.329 172.204 160.786 172.204 161.246ZM177.035 158.066L177.402 159.392C177.564 159.965 177.649 160.6 177.649 161.246V197.128H194.976V161.246C194.976 160.6 195.061 159.965 195.224 159.392L195.59 158.066H177.035ZM193.986 161.246V195.312H178.639V161.246C178.64 160.786 178.61 160.329 178.55 159.883H194.075C194.016 160.329 193.986 160.786 193.986 161.246ZM198.818 158.066L199.184 159.392C199.346 159.965 199.431 160.6 199.432 161.246V197.128H216.758V161.246C216.758 160.6 216.843 159.965 217.006 159.392L217.372 158.066H198.818ZM215.768 161.246V195.312H200.422V161.246C200.422 160.786 200.392 160.329 200.332 159.883H215.857C215.798 160.329 215.768 160.786 215.768 161.246ZM24.5601 158.066L24.9266 159.392C25.0889 159.965 25.1738 160.6 25.1741 161.246V197.128H42.5008V161.246C42.501 160.6 42.5859 159.965 42.7483 159.392L43.1148 158.066H24.5601ZM41.5107 161.246V195.312H26.1642V161.246C26.1644 160.786 26.1345 160.329 26.075 159.883H41.5999C41.5404 160.329 41.5104 160.786 41.5107 161.246ZM46.3423 158.066L46.7087 159.392C46.8711 159.965 46.956 160.6 46.9563 161.246V197.128H64.283V161.246C64.2832 160.6 64.3681 159.965 64.5305 159.392L64.897 158.066H46.3423ZM63.2929 161.246V195.312H47.9464V161.246C47.9466 160.786 47.9167 160.329 47.8572 159.883H63.3821C63.3226 160.329 63.2926 160.786 63.2929 161.246ZM68.1245 158.066L68.4909 159.392C68.6533 159.965 68.7382 160.6 68.7384 161.246V197.128H86.0652V161.246C86.0654 160.6 86.1503 159.965 86.3127 159.392L86.6792 158.066H68.1245ZM85.0751 161.246V195.312H69.7285V161.246C69.7288 160.786 69.6989 160.329 69.6394 159.883H85.1643C85.1048 160.329 85.0748 160.786 85.0751 161.246ZM89.9066 158.066L90.2731 159.392C90.4355 159.965 90.5204 160.6 90.5206 161.246V197.128H107.847V161.246C107.848 160.6 107.932 159.965 108.095 159.392L108.461 158.066H89.9066ZM106.857 161.246V195.312H91.5107V161.246C91.511 160.786 91.481 160.329 91.4215 159.883H106.946C106.887 160.329 106.857 160.786 106.857 161.246ZM111.689 158.066L112.055 159.392C112.218 159.965 112.303 160.6 112.303 161.246V197.128H129.63V161.246C129.63 160.6 129.715 159.965 129.877 159.392L130.244 158.066H111.689ZM128.639 161.246V195.312H113.293V161.246C113.293 160.786 113.263 160.329 113.204 159.883H128.729C128.669 160.329 128.639 160.786 128.639 161.246ZM133.471 158.066L133.837 159.392C134 159.965 134.085 160.6 134.085 161.246V197.128H151.412V161.246C151.412 160.6 151.497 159.965 151.659 159.392L152.026 158.066H133.471ZM150.422 161.246V195.312H135.075V161.246C135.075 160.786 135.045 160.329 134.986 159.883H150.511C150.451 160.329 150.421 160.786 150.422 161.246ZM155.253 158.066L155.62 159.392C155.782 159.965 155.867 160.6 155.867 161.246V197.128H173.194V161.246C173.194 160.6 173.279 159.965 173.441 159.392L173.808 158.066H155.253ZM172.204 161.246V195.312H156.857V161.246C156.858 160.786 156.828 160.329 156.768 159.883H172.293C172.233 160.329 172.204 160.786 172.204 161.246ZM177.035 158.066L177.402 159.392C177.564 159.965 177.649 160.6 177.649 161.246V197.128H194.976V161.246C194.976 160.6 195.061 159.965 195.224 159.392L195.59 158.066H177.035ZM193.986 161.246V195.312H178.639V161.246C178.64 160.786 178.61 160.329 178.55 159.883H194.075C194.016 160.329 193.986 160.786 193.986 161.246ZM198.818 158.066L199.184 159.392C199.346 159.965 199.431 160.6 199.432 161.246V197.128H216.758V161.246C216.758 160.6 216.843 159.965 217.006 159.392L217.372 158.066H198.818ZM215.768 161.246V195.312H200.422V161.246C200.422 160.786 200.392 160.329 200.332 159.883H215.857C215.798 160.329 215.768 160.786 215.768 161.246Z" fill="#3F3D56"/>
<path id="Vector_6" d="M77.5076 321.62H35.2168C34.1948 321.617 33.2151 320.872 32.4924 319.545C31.7698 318.219 31.3633 316.421 31.3622 314.546V273.206C31.3633 271.33 31.7698 269.532 32.4924 268.206C33.2151 266.88 34.1948 266.134 35.2168 266.132H77.5076C78.5295 266.134 79.5093 266.88 80.2319 268.206C80.9546 269.532 81.3611 271.33 81.3622 273.206V314.546C81.3611 316.421 80.9546 318.219 80.2319 319.545C79.5093 320.872 78.5295 321.618 77.5076 321.62ZM35.2168 267.949C34.4573 267.95 33.7292 268.505 33.1922 269.49C32.6552 270.476 32.3531 271.812 32.3523 273.206V314.546C32.3531 315.94 32.6552 317.276 33.1922 318.261C33.7292 319.247 34.4573 319.801 35.2168 319.803H77.5076C78.2671 319.801 78.9952 319.247 79.5322 318.261C80.0692 317.276 80.3713 315.94 80.3721 314.546V273.206C80.3713 271.812 80.0692 270.476 79.5322 269.49C78.9952 268.505 78.2671 267.95 77.5076 267.949H35.2168Z" fill="#3F3D56"/>
<path id="Vector_7" d="M141.864 321.62H99.5733C98.5513 321.618 97.5715 320.872 96.8489 319.545C96.1262 318.219 95.7198 316.421 95.7186 314.546V273.206C95.7198 271.33 96.1262 269.532 96.8489 268.206C97.5715 266.88 98.5513 266.134 99.5733 266.132H141.864C142.886 266.134 143.866 266.88 144.588 268.206C145.311 269.532 145.717 271.33 145.719 273.206V314.546C145.717 316.421 145.311 318.219 144.588 319.545C143.866 320.872 142.886 321.618 141.864 321.62ZM99.5733 267.949C98.8138 267.95 98.0857 268.505 97.5486 269.49C97.0116 270.476 96.7095 271.812 96.7087 273.206V314.546C96.7095 315.94 97.0116 317.276 97.5486 318.261C98.0857 319.247 98.8138 319.801 99.5733 319.803H141.864C142.623 319.801 143.352 319.247 143.889 318.261C144.426 317.276 144.728 315.94 144.729 314.546V273.206C144.728 271.812 144.426 270.476 143.889 269.49C143.352 268.505 142.623 267.95 141.864 267.949H99.5733Z" fill="#3F3D56"/>
<path id="Vector_8" d="M206.22 321.62H163.93C162.908 321.618 161.928 320.872 161.205 319.545C160.483 318.219 160.076 316.421 160.075 314.546V273.206C160.076 271.33 160.483 269.532 161.205 268.206C161.928 266.88 162.908 266.134 163.93 266.132H206.22C207.242 266.134 208.222 266.88 208.945 268.206C209.667 269.532 210.074 271.33 210.075 273.206V314.546C210.074 316.421 209.667 318.219 208.945 319.545C208.222 320.872 207.242 321.618 206.22 321.62ZM163.93 267.949C163.17 267.95 162.442 268.505 161.905 269.49C161.368 270.476 161.066 271.812 161.065 273.206V314.546C161.066 315.94 161.368 317.276 161.905 318.261C162.442 319.247 163.17 319.801 163.93 319.803H206.22C206.98 319.801 207.708 319.247 208.245 318.261C208.782 317.276 209.084 315.94 209.085 314.546V273.206C209.084 271.812 208.782 270.476 208.245 269.49C207.708 268.505 206.98 267.95 206.22 267.949H163.93Z" fill="#3F3D56"/>
<path id="Vector_9" d="M77.5076 440.623H35.2168C34.1948 440.621 33.2151 439.875 32.4924 438.549C31.7698 437.223 31.3633 435.425 31.3622 433.55V392.209C31.3633 390.334 31.7698 388.536 32.4924 387.21C33.2151 385.884 34.1948 385.138 35.2168 385.136H77.5076C78.5295 385.138 79.5093 385.884 80.2319 387.21C80.9546 388.536 81.3611 390.334 81.3622 392.209V433.55C81.3611 435.425 80.9546 437.223 80.2319 438.549C79.5093 439.875 78.5295 440.621 77.5076 440.623ZM35.2168 386.953C34.4573 386.954 33.7292 387.509 33.1922 388.494C32.6552 389.48 32.3531 390.816 32.3523 392.209V433.55C32.3531 434.944 32.6552 436.28 33.1922 437.265C33.7292 438.251 34.4573 438.805 35.2168 438.807H77.5076C78.2671 438.805 78.9952 438.251 79.5322 437.265C80.0692 436.28 80.3713 434.944 80.3721 433.55V392.209C80.3713 390.816 80.0692 389.48 79.5322 388.494C78.9952 387.509 78.2671 386.954 77.5076 386.953H35.2168Z" fill="#3F3D56"/>
<path id="Vector_10" d="M141.864 440.623H99.5733C98.5513 440.621 97.5715 439.875 96.8489 438.549C96.1262 437.223 95.7198 435.425 95.7186 433.55V392.209C95.7198 390.334 96.1262 388.536 96.8489 387.21C97.5715 385.884 98.5513 385.138 99.5733 385.136H141.864C142.886 385.138 143.866 385.884 144.588 387.21C145.311 388.536 145.717 390.334 145.719 392.209V433.55C145.717 435.425 145.311 437.223 144.588 438.549C143.866 439.875 142.886 440.621 141.864 440.623ZM99.5733 386.953C98.8138 386.954 98.0857 387.509 97.5486 388.494C97.0116 389.48 96.7095 390.816 96.7087 392.209V433.55C96.7095 434.944 97.0116 436.28 97.5486 437.265C98.0857 438.251 98.8138 438.805 99.5733 438.807H141.864C142.623 438.805 143.352 438.251 143.889 437.265C144.426 436.28 144.728 434.944 144.729 433.55V392.209C144.728 390.816 144.426 389.48 143.889 388.494C143.352 387.509 142.623 386.954 141.864 386.953H99.5733Z" fill="#3F3D56"/>
<path id="Vector_11" d="M206.22 440.623H163.93C162.908 440.621 161.928 439.875 161.205 438.549C160.483 437.223 160.076 435.425 160.075 433.55V392.209C160.076 390.334 160.483 388.536 161.205 387.21C161.928 385.884 162.908 385.138 163.93 385.136H206.22C207.242 385.138 208.222 385.884 208.945 387.21C209.667 388.536 210.074 390.334 210.075 392.209V433.55C210.074 435.425 209.667 437.223 208.945 438.549C208.222 439.875 207.242 440.621 206.22 440.623ZM163.93 386.953C163.17 386.954 162.442 387.509 161.905 388.494C161.368 389.48 161.066 390.816 161.065 392.209V433.55C161.066 434.944 161.368 436.28 161.905 437.265C162.442 438.251 163.17 438.805 163.93 438.807H206.22C206.98 438.805 207.708 438.251 208.245 437.265C208.782 436.28 209.084 434.944 209.085 433.55V392.209C209.084 390.816 208.782 389.48 208.245 388.494C207.708 387.509 206.98 386.954 206.22 386.953H163.93Z" fill="#3F3D56"/>
<path id="Vector_12" d="M77.5076 559.627H35.2168C34.1948 559.625 33.2151 558.879 32.4924 557.553C31.7698 556.227 31.3633 554.429 31.3622 552.554V511.213C31.3633 509.338 31.7698 507.54 32.4924 506.214C33.2151 504.888 34.1948 504.142 35.2168 504.14H77.5076C78.5295 504.142 79.5093 504.888 80.2319 506.214C80.9546 507.54 81.3611 509.338 81.3622 511.213V552.554C81.3611 554.429 80.9546 556.227 80.2319 557.553C79.5093 558.879 78.5295 559.625 77.5076 559.627ZM35.2168 505.957C34.4573 505.958 33.7292 506.512 33.1922 507.498C32.6552 508.483 32.3531 509.82 32.3523 511.213V552.554C32.3531 553.947 32.6552 555.284 33.1922 556.269C33.7292 557.254 34.4573 557.809 35.2168 557.81H77.5076C78.2671 557.809 78.9952 557.255 79.5322 556.269C80.0692 555.284 80.3713 553.947 80.3721 552.554V511.213C80.3713 509.82 80.0692 508.483 79.5322 507.498C78.9952 506.512 78.2671 505.958 77.5076 505.957H35.2168Z" fill="#3F3D56"/>
<path id="Vector_13" d="M141.864 559.627H99.5733C98.5513 559.625 97.5715 558.879 96.8489 557.553C96.1262 556.227 95.7198 554.429 95.7186 552.554V511.213C95.7198 509.338 96.1262 507.54 96.8489 506.214C97.5715 504.888 98.5513 504.142 99.5733 504.14H141.864C142.886 504.142 143.866 504.888 144.588 506.214C145.311 507.54 145.717 509.338 145.719 511.213V552.554C145.717 554.429 145.311 556.227 144.588 557.553C143.866 558.879 142.886 559.625 141.864 559.627ZM99.5733 505.957C98.8138 505.958 98.0857 506.512 97.5486 507.498C97.0116 508.483 96.7095 509.82 96.7087 511.213V552.554C96.7095 553.947 97.0116 555.284 97.5486 556.269C98.0857 557.255 98.8138 557.809 99.5733 557.81H141.864C142.623 557.809 143.352 557.255 143.889 556.269C144.426 555.284 144.728 553.947 144.729 552.554V511.213C144.728 509.82 144.426 508.483 143.889 507.498C143.352 506.512 142.623 505.958 141.864 505.957H99.5733Z" fill="#3F3D56"/>
<g id="Vector_14">
<path d="M163.93 505.457L163.929 505.457C162.907 505.459 162.044 506.197 161.466 507.259C161.02 508.078 160.731 509.1 160.618 510.185C160.738 508.763 161.099 507.453 161.644 506.453C162.326 505.203 163.171 504.642 163.93 504.64H206.22C206.98 504.642 207.825 505.203 208.506 506.453C209.051 507.453 209.412 508.763 209.532 510.185C209.419 509.1 209.131 508.078 208.684 507.259C208.106 506.197 207.243 505.459 206.221 505.457H206.22L163.93 505.457ZM208.684 556.508C209.131 555.689 209.419 554.667 209.532 553.582C209.412 555.004 209.051 556.314 208.506 557.314C207.824 558.564 206.979 559.126 206.219 559.127H163.931C163.171 559.126 162.326 558.564 161.644 557.314C161.099 556.314 160.738 555.004 160.618 553.582C160.731 554.667 161.02 555.689 161.466 556.508C162.044 557.57 162.907 558.308 163.929 558.31H163.93H206.22H206.221C207.243 558.308 208.106 557.57 208.684 556.508Z" fill="#ADD8E6"/>
<path d="M163.93 505.457L163.929 505.457C162.907 505.459 162.044 506.197 161.466 507.259C161.02 508.078 160.731 509.1 160.618 510.185C160.738 508.763 161.099 507.453 161.644 506.453C162.326 505.203 163.171 504.642 163.93 504.64H206.22C206.98 504.642 207.825 505.203 208.506 506.453C209.051 507.453 209.412 508.763 209.532 510.185C209.419 509.1 209.131 508.078 208.684 507.259C208.106 506.197 207.243 505.459 206.221 505.457H206.22L163.93 505.457ZM208.684 556.508C209.131 555.689 209.419 554.667 209.532 553.582C209.412 555.004 209.051 556.314 208.506 557.314C207.824 558.564 206.979 559.126 206.219 559.127H163.931C163.171 559.126 162.326 558.564 161.644 557.314C161.099 556.314 160.738 555.004 160.618 553.582C160.731 554.667 161.02 555.689 161.466 556.508C162.044 557.57 162.907 558.308 163.929 558.31H163.93H206.22H206.221C207.243 558.308 208.106 557.57 208.684 556.508Z" stroke="black"/>
<path d="M163.93 505.457L163.929 505.457C162.907 505.459 162.044 506.197 161.466 507.259C161.02 508.078 160.731 509.1 160.618 510.185C160.738 508.763 161.099 507.453 161.644 506.453C162.326 505.203 163.171 504.642 163.93 504.64H206.22C206.98 504.642 207.825 505.203 208.506 506.453C209.051 507.453 209.412 508.763 209.532 510.185C209.419 509.1 209.131 508.078 208.684 507.259C208.106 506.197 207.243 505.459 206.221 505.457H206.22L163.93 505.457ZM208.684 556.508C209.131 555.689 209.419 554.667 209.532 553.582C209.412 555.004 209.051 556.314 208.506 557.314C207.824 558.564 206.979 559.126 206.219 559.127H163.931C163.171 559.126 162.326 558.564 161.644 557.314C161.099 556.314 160.738 555.004 160.618 553.582C160.731 554.667 161.02 555.689 161.466 556.508C162.044 557.57 162.907 558.308 163.929 558.31H163.93H206.22H206.221C207.243 558.308 208.106 557.57 208.684 556.508Z" stroke="black" stroke-opacity="0.2"/>
<path d="M163.93 505.457L163.929 505.457C162.907 505.459 162.044 506.197 161.466 507.259C161.02 508.078 160.731 509.1 160.618 510.185C160.738 508.763 161.099 507.453 161.644 506.453C162.326 505.203 163.171 504.642 163.93 504.64H206.22C206.98 504.642 207.825 505.203 208.506 506.453C209.051 507.453 209.412 508.763 209.532 510.185C209.419 509.1 209.131 508.078 208.684 507.259C208.106 506.197 207.243 505.459 206.221 505.457H206.22L163.93 505.457ZM208.684 556.508C209.131 555.689 209.419 554.667 209.532 553.582C209.412 555.004 209.051 556.314 208.506 557.314C207.824 558.564 206.979 559.126 206.219 559.127H163.931C163.171 559.126 162.326 558.564 161.644 557.314C161.099 556.314 160.738 555.004 160.618 553.582C160.731 554.667 161.02 555.689 161.466 556.508C162.044 557.57 162.907 558.308 163.929 558.31H163.93H206.22H206.221C207.243 558.308 208.106 557.57 208.684 556.508Z" stroke="black" stroke-opacity="0.2"/>
</g>
</g>
</svg>
