<svg width="300" height="350" viewBox="0 0 300 350" fill="none" xmlns="http://www.w3.org/2000/svg">
<g id="undraw_weather_app_re_kcb1 1">
<path id="Path 449" d="M278.484 348.631C274.785 348.388 271.415 346.023 269.89 342.359C269.819 342.188 269.752 342.014 269.689 341.837C269.132 340.276 268.958 338.482 269.567 336.943C270.176 335.405 271.697 334.236 273.223 334.479C274.748 334.722 275.941 336.651 275.309 338.178C275.17 335.092 275.053 331.85 276.623 329.164C277.487 327.76 278.615 326.837 279.838 326.532C283.003 325.65 285.103 328.485 285.524 331.345C285.834 333.458 285.406 335.605 284.979 337.695C286.295 335.229 289.425 334.132 291.823 335.297C294.221 336.461 295.55 339.723 294.731 342.433C293.766 345.622 290.55 347.27 287.562 348.141C285.094 348.861 281.395 348.823 278.484 348.631Z" fill="#F2F2F2"/>
<path id="Path 538" d="M21.828 348.631C25.527 348.388 28.8971 346.023 30.4214 342.359C30.4928 342.188 30.56 342.014 30.6228 341.837C31.1795 340.276 31.3534 338.482 30.7447 336.943C30.1361 335.405 28.6146 334.236 27.0893 334.479C25.564 334.722 24.3705 336.651 25.0025 338.178C25.1422 335.092 25.2592 331.85 23.6888 329.164C22.8244 327.761 21.6968 326.837 20.4741 326.532C17.3097 325.65 15.2089 328.485 14.7881 331.345C14.4777 333.458 14.9065 335.605 15.3336 337.695C14.0174 335.229 10.8876 334.132 8.4893 335.297C6.09101 336.461 4.76196 339.723 5.58118 342.433C6.54601 345.622 9.76247 347.27 12.7502 348.141C15.218 348.861 18.9171 348.823 21.828 348.631Z" fill="#F2F2F2"/>
<path id="Vector" d="M219.27 349.71H94.2289C67.2528 349.71 45.3062 314.357 45.3062 270.902C45.3062 227.447 67.2528 192.094 94.2289 192.094H103.125C108.019 176.286 115.56 162.912 124.926 153.432C134.428 143.806 145.471 138.689 156.75 138.684C188.035 138.684 214.112 177.658 216.539 227.701H219.27C240.173 227.701 257.178 255.067 257.178 288.705C257.178 322.343 240.173 349.71 219.27 349.71ZM94.2289 195.413C68.4081 195.413 47.4014 229.277 47.4014 270.902C47.4014 312.526 68.4081 346.39 94.2289 346.39H219.27C239.018 346.39 255.083 320.513 255.083 288.705C255.083 256.897 239.018 231.02 219.27 231.02H214.575L214.515 229.462C212.628 180.419 187.254 142.003 156.75 142.003C134.784 142.003 114.363 162.598 104.725 194.47L104.44 195.413H94.2289Z" fill="#3F3D56"/>
</g>
</svg>
