<svg width="200" height="209" viewBox="0 0 200 209" fill="none" xmlns="http://www.w3.org/2000/svg">
<g id="puppy">
<g id="Frame" filter="url(#filter0_d_1_5)">
<path id="Vector" d="M28.3262 3.83395C29.2012 6.28915 30.5919 10.3883 31.3262 12.6513C31.5606 13.3345 34.3263 17.7752 36.6544 21.1912C38.7951 24.3082 41.5451 27.8736 43.3576 29.8377C44.5139 31.0974 44.7326 31.4816 45.7639 33.8301C46.3889 35.2819 47.2952 37.2887 47.7952 38.3135C49.0452 40.8541 52.2327 46.0207 53.4984 47.5365C54.8265 49.1591 55.8421 51.0379 56.1546 52.4683C56.2796 53.0874 56.4828 53.7279 56.6078 53.856C56.7328 54.0054 57.1703 54.7527 57.5765 55.5426C59.4516 59.2147 60.1078 60.0687 61.2172 60.3676C61.9828 60.5811 63.2016 61.4351 63.9829 62.3318C64.3579 62.7374 64.6547 63.015 64.6547 62.9296C64.6547 62.8655 64.8579 62.9509 65.1079 63.1431C66.1079 63.8476 68.436 64.5521 71.7329 65.1713C75.233 65.8118 77.0299 66.3241 77.8736 66.9219C78.1236 67.0927 78.9205 67.6905 79.6549 68.2243C81.9206 69.8895 84.1706 70.7222 88.9519 71.6829C94.3269 72.7504 97.1707 73.6897 100.405 75.4404C101.061 75.8034 102.765 76.5719 104.186 77.127C107.202 78.344 109.046 79.2406 111.53 80.7138C114.187 82.2936 115.749 82.9982 119.327 84.1937C122.671 85.3253 123.39 85.7309 126.718 88.2502C127.468 88.8266 128.952 89.8941 129.999 90.62C131.062 91.3458 132.405 92.3493 132.999 92.8617C134.296 93.9932 136.796 97.281 138.296 99.8003C138.906 100.846 139.452 101.679 139.531 101.679C139.827 101.679 142.531 106.162 142.968 107.401C143.734 109.514 144.89 110.774 152.078 117.286C153.874 118.929 156.25 121.107 157.343 122.132C161.375 125.911 166.515 129.519 172.859 133.02C176.375 134.942 185.328 139.425 190.047 141.603C191.766 142.393 193.891 143.481 194.766 144.015C196.516 145.061 198.656 146.919 199.469 148.072L200 148.819L199.078 149.182C198.578 149.374 196.328 150.356 194.062 151.338C187.422 154.242 186.281 154.583 181.484 155.074C168.734 156.355 157.609 150.847 144.968 137.013C142.093 133.874 141.781 133.447 140.468 131.077C139.468 129.305 136.843 125.313 136.749 125.441C136.718 125.484 136.046 128.387 135.265 131.91C132.874 142.734 132.421 145.638 132.749 148.05C132.984 149.844 133.906 152.32 135.343 155.053C135.999 156.291 136.859 158.149 137.265 159.216C137.999 161.095 138.015 161.18 138.015 163.059C138.015 164.831 137.968 165.109 137.452 166.603C137.14 167.5 136.39 169.229 135.781 170.446C134.546 172.987 134.374 173.414 132.562 178.602C131.687 181.099 130.999 182.743 130.546 183.469C130.171 184.046 129.249 185.924 128.484 187.654C127.734 189.362 126.765 191.326 126.343 192.009C125.702 193.077 125.468 193.29 124.702 193.589C123.437 194.08 122.609 194.977 120.749 197.859C119.874 199.225 118.968 200.442 118.733 200.57C117.78 201.061 116.187 201.019 113.874 200.442C112.624 200.122 111.108 199.78 110.483 199.695C109.124 199.481 108.577 198.99 108.061 197.581C107.561 196.194 107.468 192.692 107.89 190.813C108.171 189.575 108.202 189.533 108.952 189.17C109.39 188.977 110.436 188.721 111.296 188.593C114.405 188.102 114.421 188.102 117.421 185.177C119.702 182.935 120.687 181.612 120.921 180.395C121.171 179.093 121.749 177.619 122.874 175.42C124.062 173.072 124.484 171.834 124.609 170.19L124.702 168.93L124.015 167.991C123.249 166.945 122.734 166.688 120.718 166.347C118.937 166.069 117.874 165.621 117.28 164.916C116.999 164.575 116.03 163.593 115.124 162.696C113.374 160.988 110.171 157.06 108.311 154.391C105.89 150.868 103.14 145.659 101.905 142.243C98.5614 132.935 98.5301 132.849 98.1082 132.679C97.8895 132.593 96.9988 132.529 96.1395 132.551C94.5144 132.572 93.9676 132.721 90.7488 134.045C89.0925 134.75 87.7019 135.198 84.9362 135.945C81.5768 136.863 75.0455 137.61 70.0298 137.61L65.9516 137.632L65.7485 143.61C65.6235 146.919 65.5141 151.402 65.4985 153.623C65.4672 155.822 65.3891 158.298 65.2954 159.109C65.2016 159.921 65.1235 161.671 65.1235 163.038C65.1235 165.514 64.8735 167.863 64.436 169.528C64.2485 170.254 64.186 171.279 64.2016 174.011C64.2329 177.491 64.2172 177.619 63.7485 179.349C63.4828 180.374 62.7328 182.316 62.0141 183.854C60.4828 187.163 60.0609 188.422 59.7484 190.493C59.2953 193.439 58.389 195.19 57.3265 195.19C57.1234 195.19 56.5609 195.446 56.0921 195.745C54.764 196.599 52.6858 197.112 50.5139 197.133C47.717 197.133 45.9201 196.514 44.717 195.105C44.3889 194.72 43.9201 194.336 43.6857 194.251C43.092 194.059 42.6232 193.311 42.6232 192.586C42.6232 191.924 43.092 190.515 43.4357 190.13C43.7639 189.767 48.3421 186.672 49.2639 186.202C50.5921 185.519 51.3733 184.088 51.6077 181.868C51.6858 181.27 51.9358 180.374 52.1858 179.84C52.9515 178.175 53.2796 176.403 53.3577 173.307C53.4515 170.04 53.2327 167.671 52.2327 160.561C51.8421 157.914 51.4358 154.498 51.3108 152.982C51.1858 151.466 50.7952 148.733 50.4358 146.833C50.0764 144.955 49.5608 142.115 49.2639 140.535C48.6858 137.418 48.217 135.454 47.5452 133.276C47.1702 132.038 46.7639 131.398 44.0451 127.619C42.3576 125.27 40.342 122.345 39.5763 121.107C38.8107 119.869 36.8419 116.987 35.2013 114.702C31.2794 109.194 31.0294 108.511 30.1075 101.316C29.8418 99.1598 29.4981 97.1743 29.2637 96.4911C29.0606 95.8506 28.4512 93.4594 27.9199 91.1964C26.6856 85.9017 25.9512 83.4678 24.8887 81.0767C23.9355 78.899 23.8574 78.6642 23.3418 76.1022C22.5605 72.2807 22.4199 70.7008 22.5293 66.6657L22.623 62.9296L22.1855 61.6486C21.9355 60.9441 21.4042 59.6631 21.0136 58.8091L20.2792 57.2719H19.123C18.4823 57.2719 17.5448 57.1438 17.0448 56.973C16.5448 56.8022 14.9354 56.6101 13.4823 56.5247C9.85724 56.3325 8.90411 56.119 7.57597 55.2437C6.95096 54.8381 6.34158 54.4324 6.21658 54.3257C6.09158 54.2189 5.37282 53.7279 4.62281 53.2155C3.04467 52.148 2.73216 51.7424 1.21652 48.7534C-0.080367 46.1915 -0.236619 45.4443 0.263387 44.0992C0.638391 43.0745 1.41965 42.1778 2.70091 41.3024C3.21654 40.9609 4.20093 40.235 4.88844 39.6799C6.38846 38.4843 8.1541 37.5449 9.70099 37.0752C12.0135 36.3707 12.6854 35.8583 13.5917 34.0436C13.8573 33.5099 14.2792 32.3997 14.4979 31.5884C15.0917 29.5175 15.6698 28.5141 17.3417 26.6353C18.1386 25.7173 19.3105 24.2228 19.9511 23.2834C21.2011 21.4473 22.5136 20.081 23.9043 19.1416L24.7793 18.5652L24.9512 16.9426C25.0449 16.0459 25.2324 13.7402 25.3574 11.7973C25.6074 7.65552 26.1387 2.80917 26.3887 2.12599C26.6231 1.5282 27.0137 0.909061 27.1543 0.909061C27.2324 0.909061 27.7481 2.23273 28.3262 3.83395Z" fill="black"/>
</g>
</g>
<defs>
<filter id="filter0_d_1_5" x="-4" y="0.909058" width="208" height="208" filterUnits="userSpaceOnUse" color-interpolation-filters="sRGB">
<feFlood flood-opacity="0" result="BackgroundImageFix"/>
<feColorMatrix in="SourceAlpha" type="matrix" values="0 0 0 0 0 0 0 0 0 0 0 0 0 0 0 0 0 0 127 0" result="hardAlpha"/>
<feOffset dy="4"/>
<feGaussianBlur stdDeviation="2"/>
<feComposite in2="hardAlpha" operator="out"/>
<feColorMatrix type="matrix" values="0 0 0 0 0 0 0 0 0 0 0 0 0 0 0 0 0 0 0.25 0"/>
<feBlend mode="normal" in2="BackgroundImageFix" result="effect1_dropShadow_1_5"/>
<feBlend mode="normal" in="SourceGraphic" in2="effect1_dropShadow_1_5" result="shape"/>
</filter>
</defs>
</svg>
