<svg width="783" height="523" viewBox="0 0 783 523" fill="none" xmlns="http://www.w3.org/2000/svg">
<g id="undraw_playing_fetch_cm19 1">
<g id="large-bush">
<path id="Vector" d="M0 226.546C0 159.38 54.4483 0 121.614 0C188.779 0 243.227 159.38 243.227 226.546C243.227 258.8 230.415 289.733 207.608 312.54C184.801 335.347 153.868 348.159 121.614 348.159C89.3598 348.159 58.4268 335.347 35.6198 312.54C12.8128 289.733 4.80622e-07 258.8 0 226.546Z" fill="#006600"/>
<path id="Vector_2" d="M122 348C121.735 348 121.48 347.938 121.293 347.828C121.105 347.718 121 347.569 121 347.414V101.586C121 101.431 121.105 101.282 121.293 101.172C121.48 101.062 121.735 101 122 101C122.265 101 122.52 101.062 122.707 101.172C122.895 101.282 123 101.431 123 101.586V347.414C123 347.569 122.895 347.718 122.707 347.828C122.52 347.938 122.265 348 122 348Z" fill="#4D3319"/>
<path id="Vector_3" d="M121.614 183.08C121.482 183.08 121.352 183.054 121.231 183.004C121.11 182.953 120.999 182.88 120.907 182.787L72.772 134.652C72.6782 134.56 72.6036 134.449 72.5526 134.328C72.5016 134.206 72.4751 134.076 72.4747 133.944C72.4743 133.812 72.5 133.681 72.5502 133.559C72.6005 133.438 72.6744 133.327 72.7676 133.234C72.8609 133.14 72.9716 133.067 73.0935 133.016C73.2154 132.966 73.3461 132.94 73.4779 132.941C73.6098 132.941 73.7403 132.968 73.8619 133.019C73.9834 133.07 74.0937 133.144 74.1863 133.238L122.321 181.373C122.461 181.512 122.556 181.691 122.594 181.885C122.633 182.078 122.613 182.28 122.538 182.462C122.462 182.645 122.334 182.801 122.169 182.911C122.005 183.021 121.811 183.08 121.614 183.08Z" fill="#4D3319"/>
<path id="Vector_4" d="M121.614 266.41C121.416 266.41 121.223 266.351 121.058 266.241C120.894 266.131 120.766 265.975 120.69 265.792C120.614 265.61 120.594 265.409 120.633 265.215C120.672 265.021 120.767 264.843 120.907 264.703L201.517 184.092C201.609 183.998 201.719 183.924 201.841 183.873C201.963 183.822 202.093 183.795 202.225 183.795C202.357 183.794 202.487 183.82 202.609 183.87C202.731 183.921 202.842 183.994 202.935 184.088C203.028 184.181 203.102 184.292 203.153 184.414C203.203 184.535 203.229 184.666 203.228 184.798C203.228 184.93 203.201 185.06 203.15 185.182C203.099 185.303 203.025 185.414 202.931 185.506L122.321 266.117C122.228 266.21 122.118 266.284 121.997 266.334C121.875 266.384 121.745 266.41 121.614 266.41Z" fill="#4D3319"/>
</g>
<g id="small-bush">
<path id="Vector_5" d="M232 306.927C232 257.734 274.309 141 326.5 141C378.691 141 421 257.734 421 306.927C420.983 330.556 411.019 353.212 393.299 369.915C375.579 386.617 351.552 396 326.5 396C301.448 396 277.421 386.617 259.701 369.915C241.981 353.212 232.017 330.556 232 306.927Z" fill="#336600"/>
<path id="Vector_6" d="M319 390C318.869 390 318.739 389.989 318.617 389.969C318.496 389.948 318.386 389.918 318.293 389.88C318.2 389.843 318.127 389.798 318.076 389.748C318.026 389.698 318 389.645 318 389.592V218.407C318.001 218.299 318.107 218.195 318.294 218.119C318.482 218.043 318.735 218 319 218C319.265 218 319.518 218.043 319.706 218.119C319.893 218.195 319.999 218.299 320 218.407V389.592C320 389.645 319.974 389.698 319.924 389.748C319.873 389.798 319.8 389.843 319.707 389.88C319.614 389.918 319.504 389.948 319.383 389.969C319.261 389.989 319.131 390 319 390Z" fill="#4D3319"/>
<path id="Vector_7" d="M319.177 277.057C319.082 277.057 318.989 277.039 318.901 277.003C318.814 276.967 318.735 276.914 318.668 276.847L284.056 242.258C283.922 242.123 283.846 241.941 283.846 241.75C283.846 241.559 283.922 241.377 284.057 241.242C284.192 241.107 284.374 241.031 284.565 241.031C284.756 241.032 284.939 241.107 285.073 241.242L319.685 275.831C319.786 275.931 319.854 276.059 319.882 276.199C319.91 276.338 319.895 276.482 319.841 276.614C319.786 276.745 319.694 276.857 319.576 276.936C319.458 277.015 319.319 277.057 319.177 277.057Z" fill="#4D3319"/>
<path id="Vector_8" d="M319.177 336.936C319.035 336.937 318.896 336.894 318.777 336.815C318.659 336.737 318.567 336.624 318.513 336.493C318.458 336.362 318.444 336.217 318.472 336.078C318.499 335.938 318.568 335.81 318.668 335.71L376.632 277.785C376.699 277.718 376.778 277.665 376.865 277.629C376.952 277.593 377.046 277.574 377.14 277.574C377.235 277.574 377.328 277.593 377.415 277.629C377.503 277.665 377.582 277.718 377.649 277.784C377.715 277.851 377.768 277.93 377.805 278.018C377.841 278.105 377.859 278.198 377.859 278.293C377.859 278.387 377.841 278.481 377.805 278.568C377.769 278.655 377.716 278.734 377.649 278.801L319.685 336.726C319.618 336.793 319.539 336.846 319.452 336.882C319.365 336.918 319.271 336.937 319.177 336.936Z" fill="#4D3319"/>
</g>
</g>
</svg>
