<svg width="213" height="212" viewBox="0 0 213 212" fill="none" xmlns="http://www.w3.org/2000/svg">
<g id="whitecloud">
<path id="Vector" d="M174.27 211.71H49.2289C22.2528 211.71 0.30624 176.357 0.30624 132.902C0.30624 89.447 22.2528 54.0939 49.2289 54.0939H58.1246C63.0188 38.2858 70.5603 24.9117 79.9258 15.4316C89.4284 5.80623 100.471 0.688891 111.75 0.683624C143.035 0.683624 169.112 39.658 171.539 89.7009H174.27C195.173 89.7009 212.178 117.067 212.178 150.705C212.178 184.343 195.173 211.71 174.27 211.71ZM49.2289 57.4131C23.4081 57.4131 2.40142 91.2771 2.40142 132.902C2.40142 174.526 23.4081 208.39 49.2289 208.39H174.27C194.018 208.39 210.083 182.513 210.083 150.705C210.083 118.897 194.018 93.0201 174.27 93.0201H169.575L169.515 91.4616C167.628 42.4194 142.254 4.00286 111.75 4.00286C89.7839 4.00286 69.363 24.5978 59.7253 56.4704L59.4403 57.4131H49.2289Z" fill="#EEEEEE"/>
</g>
</svg>
